<?xml version="1.0" encoding="utf-8"?>
<!-- Generator: Adobe Illustrator 28.2.0, SVG Export Plug-In . SVG Version: 6.00 Build 0)  -->
<svg version="1.1" id="Layer_1" xmlns="http://www.w3.org/2000/svg" xmlns:xlink="http://www.w3.org/1999/xlink" x="0px" y="0px"
	 viewBox="0 0 841.89 762.32" style="enable-background:new 0 0 841.89 762.32;" xml:space="preserve">
<style type="text/css">
	.st0{fill:#FFFFFF;stroke:#000000;stroke-width:0.9667;stroke-miterlimit:10;}
	.st1{fill:#C9C9C9;}
</style>
<g>
	<path class="st0" d="M669.36,143.65c-12.6,11.61-24.5,22.57-46.45,33.2c-47.26,22.9-87.21,18.54-133.46,13.48
		c-16.95-1.85-34.48-3.77-53.73-4.54c-74.64-2.98-138.45,12.7-178.84,26.37c-49.05,16.61-82.05,36.37-91.95,47.71
		c-2.33,2.66-2.68,4.14-2.62,4.48c1.51,2.18,16.39,1.58,28.35,1.1c36.98-1.49,105.82-4.26,177.39,31.3
		c28.98,14.4,42.16,26.83,54.9,38.85c12.51,11.8,24.33,22.94,50.8,34.53c49.98,21.87,89.06,18.03,134.31,13.6
		c27.29-2.67,55.51-5.44,89.34-3.05c48.36,3.42,96.79,17.06,144.75,40.67l0.23-352.62c-50.51,4.79-95.04,19.23-132.79,43.16
		C691.11,123.61,680.05,133.8,669.36,143.65z"/>
	<path class="st0" d="M608.66,389.7c-46.08,4.52-85.88,8.42-137.3-14.08c-27.43-12-39.62-23.49-52.52-35.66
		c-12.43-11.72-25.28-23.84-53.46-37.84c-70.19-34.88-138.03-32.14-174.48-30.68c-22.1,0.89-33.19,1.34-34.5-6.05
		c-0.48-2.73,0.83-5.83,4.01-9.47c10.41-11.92,44.44-32.47,94.54-49.44c40.87-13.84,105.44-29.71,181-26.69
		c19.46,0.78,37.09,2.71,54.14,4.57c45.33,4.96,84.48,9.24,130.19-12.91c21.15-10.25,32.2-20.43,45-32.22
		c10.38-9.56,22.15-20.4,41.1-32.42c38.71-24.54,84.29-39.31,136-44.13l0.04-58.01c-52.9-15.58-102.24,12.26-111.06,17.47
		c-37.66,22.24-32.7,43.18-59.8,48.83c-44.09,9.19-75.19-42.48-113.62-26.91c-17.15,6.95-23.67,22.39-38.87,19.93
		c-13.98-2.26-15.81-16.5-27.91-23.92c-27.13-16.63-59.02,29.81-111.62,36.88C310.43,86.25,277,17.89,224.09,39.09
		c-26.79,10.74-31.61,33.63-59.8,34.88c-24.04,1.07-33.78-15.01-57.8-21.93C85.37,45.97,52.82,46.84,3.84,79.96V335.1
		c23.91-13.64,48.76-25.23,74.27-34.57c14.19-5.2,28.69-9.73,43.57-11.23c33.47-3.36,53.32,15.72,82.03,29.67
		c55.64,27.04,116.82,22.29,172.66,52.79c26.06,14.23,57.16,16.64,84.56,26.89c10.85,4.06,89.1,52.5,46.63,60.15
		c-83.42,15.03-159.39,52.13-234.24,94.54c-21.62,12.25-43.67,24.87-60.45,44.42c-14.69,17.11-24.77,38.91-40.72,54.55
		c-15.94,15.63-36.46,23.88-56.45,31.79c-37.29,14.75-74.57,29.5-111.86,44.25v27.21h838.1l0.22-327.53
		c-48.12-24.07-96.71-37.94-145.17-41.37C663.66,384.31,635.7,387.05,608.66,389.7z"/>
	<path class="st1" d="M697.41,380.68c-33.83-2.4-62.05,0.37-89.34,3.05c-45.25,4.43-84.33,8.26-134.31-13.6
		c-26.48-11.58-38.29-22.73-50.8-34.53c-12.75-12.02-25.93-24.45-54.9-38.85c-71.57-35.56-140.41-32.79-177.39-31.3
		c-11.96,0.48-26.83,1.08-28.35-1.1c-0.06-0.34,0.29-1.82,2.62-4.48c9.9-11.33,42.89-31.09,91.95-47.71
		c40.39-13.68,104.2-29.35,178.84-26.37c19.25,0.77,36.78,2.69,53.73,4.54c46.25,5.06,86.19,9.43,133.46-13.48
		c21.95-10.64,33.85-21.6,46.45-33.2c10.69-9.85,21.75-20.03,40.25-31.76c37.75-23.93,82.28-38.37,132.79-43.16l0-6.04
		c-51.71,4.82-97.29,19.59-136,44.13c-18.96,12.02-30.72,22.85-41.1,32.42c-12.8,11.79-23.85,21.97-45,32.22
		c-45.71,22.15-84.86,17.87-130.19,12.91c-17.05-1.86-34.69-3.79-54.14-4.57c-75.57-3.02-140.14,12.85-181,26.69
		c-50.1,16.97-84.13,37.52-94.54,49.44c-3.18,3.64-4.49,6.74-4.01,9.47c1.3,7.39,12.4,6.94,34.5,6.05
		c36.45-1.47,104.29-4.2,174.48,30.68c28.18,14,41.03,26.12,53.46,37.84c12.9,12.17,25.08,23.66,52.52,35.66
		c51.42,22.49,91.22,18.59,137.3,14.08c27.04-2.65,55-5.39,88.33-3.03c48.46,3.43,97.04,17.3,145.17,41.37l0-6.68
		C794.2,397.74,745.77,384.1,697.41,380.68z"/>
	<path class="st1" d="M172.15,652.32c15.95-15.64,26.03-37.44,40.72-54.55c16.78-19.55,38.83-32.17,60.45-44.42
		c74.84-42.41,150.81-79.51,234.24-94.54c42.47-7.65-35.78-56.09-46.63-60.15c-27.4-10.25-58.5-12.66-84.56-26.89
		c-55.84-30.5-117.02-25.75-172.66-52.79c-28.71-13.95-48.56-33.04-82.03-29.67c-14.88,1.5-29.37,6.03-43.57,11.23
		c-25.51,9.34-50.36,20.93-74.27,34.57v393.26c37.29-14.75,74.57-29.5,111.86-44.25C135.69,676.2,156.21,667.96,172.15,652.32z"/>
</g>
</svg>
